<svg width="25" height="25" viewBox="0 0 25 25" fill="none" xmlns="http://www.w3.org/2000/svg">
<path d="M17.3958 19.7715H7.60413C7.16663 19.7715 6.67705 19.4277 6.53121 19.0111L2.21871 6.94857C1.60413 5.2194 2.32288 4.68815 3.80205 5.75065L7.86455 8.6569C8.54163 9.12565 9.31246 8.88607 9.60413 8.12565L11.4375 3.24023C12.0208 1.67773 12.9895 1.67773 13.5729 3.24023L15.4062 8.12565C15.6979 8.88607 16.4687 9.12565 17.1354 8.6569L20.9479 5.93815C22.5729 4.77148 23.3541 5.36523 22.6875 7.25065L18.4791 19.0319C18.3229 19.4277 17.8333 19.7715 17.3958 19.7715Z" stroke="#88888C" stroke-width="1.5" stroke-linecap="round" stroke-linejoin="round"/>
<path d="M6.77087 22.916H18.2292" stroke="#88888C" stroke-width="1.5" stroke-linecap="round" stroke-linejoin="round"/>
<path d="M9.89587 14.584H15.1042" stroke="#88888C" stroke-width="1.5" stroke-linecap="round" stroke-linejoin="round"/>
</svg>
