<svg width="335" height="150" viewBox="0 0 335 150" fill="none" xmlns="http://www.w3.org/2000/svg">
<g opacity="0.2">
<path d="M-328.448 -217.375C-311.927 -241.004 -271.359 -242.141 -244.1 -228.256C-216.84 -214.371 -198.851 -190.173 -178.843 -168.736C-158.834 -147.218 -133.227 -126.593 -101.837 -124.807C-61.7281 -122.533 -25.2904 -151.928 14.7267 -148.111C45.841 -145.188 69.4291 -122.696 82.6457 -98.9853C90.0801 -85.5873 92.7418 -70.1593 98.7994 -56.2741C126.701 6.49365 81.6361 62.3594 118.257 101.498C157.907 143.884 202.238 141.692 224.083 133.897C252.076 123.909 314.121 90.2922 297.05 24.1141C290.074 -2.76316 284.2 -30.29 286.128 -57.8169C288.973 -98.9854 325.594 -139.017 372.219 -141.697C404.16 -143.483 437.293 -128.867 467.123 -139.017C487.131 -145.838 500.99 -163.215 505.947 -181.728C510.903 -200.242 507.874 -219.73 502.092 -238" stroke="white" stroke-miterlimit="10"/>
<path d="M-328.356 -215.508C-310.275 -239.137 -269.064 -241.248 -240.704 -227.363C-212.985 -213.802 -194.537 -189.361 -174.987 -167.437C-155.621 -145.757 -131.299 -124.807 -101.011 -121.965C-62.2785 -118.311 -26.208 -145.107 13.6256 -141.128C45.2905 -137.961 69.6129 -117.012 84.2063 -94.1133C92.6503 -80.9589 96.5052 -65.3685 103.114 -51.0773C131.107 9.57925 88.4283 64.1457 124.132 102.553C162.589 143.803 205.818 142.585 227.846 135.277C255.748 125.939 315.315 93.459 300.446 29.5545C294.296 3.16445 289.34 -24.1188 291.451 -51.4021C294.388 -91.515 329.357 -130.41 374.239 -133.901C405.261 -136.337 438.028 -123.021 467.582 -133.008C487.774 -139.829 502.092 -156.475 508.058 -174.42C514.024 -192.528 512.555 -211.935 507.874 -230.53" stroke="#FBFBFB" stroke-miterlimit="10"/>
<path d="M-328.173 -213.64C-308.623 -237.188 -266.679 -240.355 -237.125 -226.389C-208.948 -213.072 -190.04 -188.468 -170.858 -166.057C-152.134 -144.133 -129.189 -123.021 -100.002 -119.042C-62.738 -114.008 -26.8511 -138.286 12.7072 -134.064C44.831 -130.654 69.9794 -111.328 86.0414 -89.1604C95.4949 -76.1683 100.635 -60.4967 107.702 -45.7183C135.787 12.827 95.4032 66.1755 130.281 103.69C167.544 143.803 209.672 143.64 231.792 136.738C259.51 128.131 316.691 96.7068 304.116 34.9947C298.793 9.17304 294.755 -17.9478 296.957 -44.9875C299.986 -84.0447 333.303 -121.722 376.533 -126.106C406.729 -129.192 439.037 -117.256 468.224 -127C488.599 -133.739 503.376 -149.736 510.26 -167.112C517.327 -184.895 517.327 -204.221 513.748 -222.978" stroke="#F6F6F6" stroke-miterlimit="10"/>
<path d="M-328.08 -211.854C-307.061 -235.403 -264.383 -239.544 -233.635 -225.577C-204.999 -212.504 -185.633 -187.657 -166.91 -164.84C-148.828 -142.753 -127.168 -121.316 -99.0823 -116.282C-63.1954 -109.948 -27.6755 -131.629 11.6992 -127.244C44.2819 -123.59 70.2563 -105.888 87.7868 -84.3702C98.25 -71.6218 104.583 -55.7878 112.201 -40.5221C140.195 15.9932 102.288 67.9613 136.34 104.745C172.502 143.721 213.437 144.533 235.74 138.118C263.367 130.242 318.161 99.8729 307.698 40.4344C303.2 15.1 300.263 -11.7773 302.466 -38.4921C305.587 -76.4938 337.252 -112.953 378.737 -118.231C408.108 -121.966 439.864 -111.41 468.868 -120.91C489.427 -127.65 504.571 -142.916 512.464 -159.805C520.633 -177.182 522.102 -196.426 519.623 -215.427" stroke="#F2F2F2" stroke-miterlimit="10"/>
<path d="M-327.991 -209.987C-305.504 -233.453 -262.091 -238.65 -230.242 -224.603C-201.147 -211.773 -181.322 -186.763 -162.966 -163.378C-145.527 -141.129 -125.243 -119.448 -98.2591 -113.277C-63.7489 -105.563 -28.5044 -124.645 10.5949 -120.098C43.6366 -116.2 70.5289 -100.042 89.4361 -79.3356C100.909 -66.7496 108.527 -50.8343 116.512 -35.0815C144.414 19.4038 108.986 70.0727 142.119 106.044C177.088 143.802 216.83 145.67 239.317 139.742C266.852 132.516 319.259 103.202 310.999 46.0375C307.328 21.109 305.308 -5.44343 307.603 -31.9147C310.815 -68.8608 340.92 -104.183 380.662 -110.273C409.206 -114.658 440.504 -105.401 469.232 -114.658C489.975 -121.397 505.578 -136.013 514.481 -152.253C523.751 -169.305 526.688 -188.387 525.311 -207.713" stroke="#EEEEEE" stroke-miterlimit="10"/>
<path d="M-327.898 -208.119C-303.851 -231.586 -259.795 -237.757 -226.754 -223.709C-197.291 -211.123 -176.916 -185.951 -159.018 -162.078C-142.222 -139.667 -123.223 -117.581 -97.3404 -110.435C-64.2987 -101.26 -29.3295 -117.906 9.58624 -113.115C43.0868 -108.974 70.897 -94.4387 91.0891 -74.4635C103.572 -62.1211 112.383 -46.0434 120.918 -29.8034C148.637 22.6519 115.779 71.9404 148.086 107.1C181.862 143.721 220.502 146.563 243.173 141.123C270.524 134.546 320.729 106.288 314.488 51.478C311.734 27.0367 310.541 0.727906 313.019 -25.4997C316.323 -61.3902 344.776 -95.5755 382.774 -102.478C410.492 -107.512 441.331 -99.6355 469.784 -108.649C490.71 -115.307 506.864 -129.274 516.593 -144.945C526.964 -161.591 531.37 -180.592 531.094 -200.161" stroke="#E9E9E9" stroke-miterlimit="10"/>
<path d="M-327.805 -206.251C-302.289 -229.637 -257.499 -236.864 -223.264 -222.816C-193.343 -210.474 -172.417 -185.139 -154.978 -160.779C-138.825 -138.205 -121.202 -115.875 -96.3293 -107.593C-64.6643 -97.037 -30.0623 -111.085 8.66987 -106.131C42.6294 -101.747 71.3573 -88.8358 92.9262 -69.5913C106.51 -57.4113 116.422 -41.2524 125.509 -24.6064C152.952 25.8189 122.755 73.727 154.237 108.156C186.911 143.64 224.359 147.457 247.121 142.504C274.288 136.657 322.382 109.293 318.16 56.8373C316.233 32.8021 316.049 6.81804 318.619 -19.0848C322.015 -53.8385 348.816 -87.0493 385.162 -94.6821C412.054 -100.366 442.342 -93.7889 470.611 -102.64C491.721 -109.298 508.334 -122.534 519.072 -137.637C530.545 -153.958 536.419 -172.878 537.245 -192.61" stroke="#E5E5E5" stroke-miterlimit="10"/>
<path d="M-327.621 -204.464C-300.637 -227.769 -255.113 -236.051 -219.777 -221.922C-189.397 -209.824 -168.012 -184.327 -151.032 -159.479C-135.429 -136.662 -119.275 -114.089 -95.5034 -104.751C-65.307 -92.8142 -30.8885 -104.345 7.56833 -99.1478C41.9868 -94.5194 71.6325 -83.2325 94.5781 -64.6377C109.263 -52.7013 120.277 -36.3801 129.823 -19.2468C156.898 29.2297 129.455 75.7574 160.111 109.374C191.592 143.722 227.846 148.431 250.792 144.047C277.868 138.85 331.285 111.729 321.464 62.4406C316.875 39.1361 321.097 13.1521 323.759 -12.5072C327.247 -46.2052 352.487 -78.2793 387.089 -86.7241C413.155 -93.1389 442.984 -87.8609 470.886 -96.4682C492.18 -103.045 509.343 -115.631 520.908 -130.247C533.574 -146.163 540.825 -165.001 542.752 -185.058" stroke="#E1E1E1" stroke-miterlimit="10"/>
<path d="M-327.529 -202.597C-299.076 -225.902 -252.909 -235.077 -216.288 -221.03C-185.541 -209.174 -163.605 -183.515 -147.084 -158.181C-132.124 -135.201 -117.255 -112.384 -94.5846 -101.909C-65.7649 -88.6734 -31.7137 -97.5242 6.55962 -92.165C41.437 -87.293 72.0923 -77.7114 96.2311 -59.7661C112.018 -48.0733 124.133 -31.5897 134.229 -13.9693C160.938 32.5584 136.248 77.6246 166.078 110.511C196.366 143.721 231.518 149.405 254.648 145.508C281.54 140.961 333.581 114.977 325.045 67.8806C320.915 44.9821 326.513 19.3228 329.267 -6.09282C332.846 -38.7353 356.434 -69.7538 389.293 -78.9294C414.625 -85.9938 443.903 -82.015 471.53 -90.3786C493.007 -96.9558 510.721 -108.811 523.111 -122.859C536.971 -138.449 545.598 -157.125 548.627 -177.425" stroke="#FCFCFC" stroke-miterlimit="10"/>
<path d="M-327.438 -200.73C-297.425 -223.953 -250.616 -234.185 -212.893 -220.056C-181.687 -208.444 -159.201 -182.622 -143.139 -156.801C-128.729 -133.74 -115.329 -110.517 -93.7598 -98.9863C-66.4086 -84.3703 -32.5409 -90.6227 5.4571 -85.1011C40.7934 -79.9855 72.4583 -72.0279 97.882 -54.8135C114.77 -43.3642 127.987 -26.637 138.633 -8.61057C164.883 35.9683 143.039 79.654 171.951 111.647C201.137 143.721 235.005 150.379 258.318 146.969C285.027 143.071 335.599 118.143 328.348 73.4016C324.677 50.8279 331.56 25.5747 334.406 0.483867C337.985 -31.103 360.105 -61.0658 391.219 -70.9722C415.725 -78.7675 444.545 -76.0067 471.896 -84.2079C493.556 -90.7039 511.821 -101.91 525.13 -115.389C540.182 -130.573 550.186 -149.249 554.316 -169.712" stroke="#F8F8F8" stroke-miterlimit="10"/>
<path d="M-327.347 -198.862C-295.866 -222.086 -248.323 -233.21 -209.407 -219.162C-177.834 -207.713 -154.796 -181.892 -139.193 -155.502C-125.426 -132.278 -113.31 -108.73 -92.843 -96.1442C-66.8685 -80.1478 -33.3679 -83.883 4.44646 -78.1178C40.2416 -72.7586 72.9162 -66.5062 99.6249 -49.9413C117.614 -38.7357 131.841 -21.8461 143.038 -3.41364C168.829 39.2164 149.83 81.4405 177.915 112.703C205.909 143.64 238.675 151.273 262.172 148.349C288.789 145.101 337.709 121.31 331.926 78.8422C328.898 56.5121 336.883 31.746 339.911 6.89879C343.583 -23.6325 364.142 -52.6209 393.421 -63.1769C417.192 -71.703 445.37 -70.2413 472.537 -78.199C494.381 -84.6138 513.197 -95.1698 527.331 -108.162C543.577 -123.021 554.958 -141.535 560.189 -162.322" stroke="#F4F4F4" stroke-miterlimit="10"/>
<path d="M-327.162 -197.075C-294.212 -220.217 -245.934 -232.397 -205.825 -218.268C-173.793 -207.063 -150.205 -181.079 -135.061 -154.201C-121.844 -130.816 -111.198 -107.024 -91.8314 -93.3013C-67.3255 -75.9245 -34.1003 -77.0613 3.53054 -71.2149C39.7846 -65.5309 73.5606 -61.0649 101.462 -45.0684C120.553 -34.1064 135.881 -17.0544 147.629 1.86527C172.869 42.5465 156.807 83.3902 184.067 113.84C210.867 143.641 242.44 152.167 266.12 149.812C292.554 147.214 330.735 124.559 335.508 84.2834C338.17 62.197 342.3 37.9182 345.329 13.3145C349.092 -16.1611 367.999 -44.1752 395.625 -55.3808C418.571 -64.7189 446.289 -64.394 473.09 -72.1892C495.209 -78.604 514.484 -88.4293 529.536 -100.853C546.975 -115.307 559.732 -133.739 566.065 -154.77" stroke="white" stroke-miterlimit="10"/>
<path d="M-327.073 -195.207C-292.655 -218.349 -243.734 -231.423 -202.432 -217.375C-170.033 -206.332 -145.894 -180.267 -131.209 -152.902C-118.635 -129.354 -109.273 -105.238 -91.0085 -90.4592C-67.8793 -71.702 -34.9294 -70.2404 2.42611 -64.2316C39.1391 -58.304 73.9247 -55.5432 103.02 -40.1963C123.304 -29.5591 139.549 -12.1823 151.94 7.14336C176.629 45.957 163.504 85.3392 189.938 114.896C215.545 143.56 246.017 152.979 269.88 151.192C296.13 149.244 332.66 127.401 338.993 89.724C342.664 67.9623 347.528 44.0895 350.741 19.8106C354.504 -8.60944 371.851 -35.7303 397.733 -47.5043C419.853 -57.6544 447.112 -58.4664 473.637 -66.018C495.941 -72.3516 515.766 -81.5272 531.644 -93.3824C550.276 -107.43 564.41 -125.781 571.845 -147.137" stroke="#FBFBFB" stroke-miterlimit="10"/>
<path d="M-326.979 -193.341C-291.001 -216.402 -241.438 -230.449 -198.943 -216.402C-166.085 -205.602 -141.395 -179.374 -127.261 -151.523C-115.237 -127.812 -107.344 -103.452 -90.1804 -87.537C-68.428 -67.4805 -35.8452 -63.3393 1.32674 -57.1681C38.4986 -50.9969 74.2938 -49.9413 104.674 -35.244C126.059 -24.8504 143.314 -7.3112 156.256 12.5016C180.394 49.4477 170.206 87.287 195.814 116.113C220.228 143.64 249.507 154.034 273.554 152.734C299.62 151.354 334.589 130.485 342.39 95.2446C347.071 73.8077 352.67 50.3409 356.066 26.3057C359.921 -1.05878 375.707 -27.2864 399.846 -39.6289C421.232 -50.5909 447.94 -52.6209 474.19 -59.9289C496.677 -66.2625 517.144 -74.6261 533.757 -86.0754C553.674 -99.717 569.093 -118.068 577.629 -139.586" stroke="#F7F7F7" stroke-miterlimit="10"/>
<path d="M-326.887 -191.473C-289.44 -214.534 -239.235 -229.475 -195.455 -215.508C-162.23 -204.871 -136.898 -178.643 -123.222 -150.223C-111.749 -126.351 -105.325 -101.666 -89.1708 -84.6948C-68.8869 -63.258 -36.5794 -56.5184 0.408909 -50.1848C38.0397 -43.6887 74.8445 -44.5007 106.509 -30.2907C128.996 -20.2219 147.261 -2.35784 160.845 17.7798C184.341 52.8583 177.182 89.1547 201.871 117.25C225.092 143.64 253.27 154.927 277.5 154.277C303.475 153.546 336.883 133.571 345.97 100.848C351.844 79.8167 357.993 56.6747 361.481 32.883C365.336 6.57416 379.562 -18.7603 402.049 -31.6711C422.608 -43.4451 448.858 -46.6119 474.832 -53.7576C497.503 -60.01 518.521 -67.724 536.051 -78.6048C557.161 -91.7592 573.958 -110.11 583.595 -131.872" stroke="#F2F2F2" stroke-miterlimit="10"/>
<path d="M-326.797 -189.686C-287.881 -212.666 -236.942 -228.581 -192.06 -214.696C-158.376 -204.221 -132.493 -177.912 -119.368 -149.005C-108.446 -125.051 -103.398 -100.042 -88.4377 -81.9339C-69.5305 -59.1166 -37.4984 -49.7786 -0.785418 -43.2826C37.3043 -36.543 75.2105 -39.0602 108.069 -25.4998C131.749 -15.7557 150.931 2.35184 165.157 22.9767C188.103 56.2687 183.881 91.0224 207.744 118.306C229.864 143.559 256.756 155.739 281.17 155.658C306.961 155.495 338.993 136.494 349.365 106.207C356.432 85.5008 363.132 62.7648 366.803 39.2979C370.75 14.0447 383.232 -10.4777 404.067 -23.8757C423.709 -36.543 449.591 -40.7654 475.29 -47.7486C498.144 -53.9198 519.805 -60.903 538.07 -71.2966C560.464 -84.0451 578.546 -102.315 589.284 -124.402" stroke="#FEFEFE" stroke-miterlimit="10"/>
<path d="M-326.614 -187.819C-286.138 -210.718 -234.648 -227.608 -188.482 -213.722C-154.43 -203.491 -127.905 -177.02 -115.239 -147.625C-104.868 -123.509 -101.196 -98.1745 -87.3373 -79.0112C-69.8068 -54.8948 -38.1419 -42.8772 -1.52065 -36.2187C37.028 -29.1543 75.9438 -33.5391 109.995 -20.5471C134.776 -11.1279 154.877 7.30453 169.745 28.3354C191.957 59.7598 190.855 92.9707 213.893 119.442C234.819 143.558 260.61 156.632 285.208 157.119C310.815 157.606 341.654 139.58 353.035 111.728C361.387 91.4279 368.546 69.0167 372.309 45.7934C376.256 21.677 387.178 -2.19587 406.361 -16.0811C425.176 -29.6415 450.508 -34.9195 475.932 -41.7403C498.969 -47.9115 521.181 -54.0828 540.363 -63.9892C563.951 -76.2504 583.409 -94.5204 595.249 -116.85" stroke="#FAFAFA" stroke-miterlimit="10"/>
<path d="M-326.519 -185.952C-284.574 -208.851 -232.35 -226.633 -185.082 -212.829C-150.572 -202.761 -123.496 -176.289 -111.381 -146.326C-101.56 -122.048 -99.2652 -96.4695 -86.5074 -76.1695C-70.3537 -50.6726 -39.0559 -36.0566 -2.61828 -29.2358C36.3893 -21.9277 76.3147 -28.099 111.651 -15.6753C137.534 -6.5809 158.552 12.2575 174.155 33.6132C195.724 63.2512 197.743 94.8381 219.862 120.579C239.688 143.477 264.285 157.525 288.975 158.58C314.398 159.636 344.044 142.746 356.527 117.168C366.164 97.3553 373.782 75.1876 377.728 52.208C381.675 29.1471 390.853 6.0863 408.475 -8.28613C426.373 -22.821 451.338 -29.0733 476.486 -35.6505C499.707 -41.7405 522.469 -47.181 542.478 -56.6814C567.351 -68.4554 588.094 -86.8066 601.035 -109.299" stroke="#F5F5F5" stroke-miterlimit="10"/>
<path d="M-326.429 -184.086C-283.016 -206.903 -230.149 -225.66 -181.596 -211.856C-146.719 -201.95 -119 -175.397 -107.344 -144.866C-98.0739 -120.425 -97.2479 -94.522 -85.5915 -73.1663C-70.8145 -46.2891 -39.7921 -29.0747 -3.62978 -22.0915C35.8367 -14.4586 76.7717 -22.4975 113.393 -10.561C140.377 -1.79141 162.313 17.3718 178.65 39.1335C199.577 66.9851 204.625 96.948 225.918 121.958C244.55 143.719 267.955 158.66 292.919 160.284C318.251 161.908 346.704 146.155 360.104 122.932C371.21 103.606 379.103 81.6824 383.233 59.0275C387.18 37.0223 394.706 14.6922 410.768 -0.0861865C427.656 -15.5954 452.346 -22.8222 477.219 -29.237C500.623 -35.2459 524.028 -39.9555 544.77 -48.9687C570.837 -60.2555 592.956 -78.6067 606.999 -101.424" stroke="#F2F2F2" stroke-miterlimit="10"/>
<path d="M-326.338 -182.297C-281.457 -205.115 -227.856 -224.765 -178.11 -211.042C-142.865 -201.298 -114.413 -174.746 -103.399 -143.646C-94.6793 -119.124 -95.23 -92.8959 -84.675 -70.4035C-71.3665 -42.227 -40.6194 -22.3329 -4.64063 -15.2685C35.2848 -7.31091 77.2293 -17.2173 115.044 -5.84931C143.221 2.5955 165.983 22.1648 182.963 44.17C203.155 70.2353 211.324 98.6553 231.699 122.853C249.23 143.478 271.441 159.312 296.498 161.504C321.646 163.697 349.089 149.243 363.407 128.131C376.073 109.374 384.15 87.6121 388.372 65.2008C392.319 44.2512 398.009 22.7332 412.603 7.46755C428.389 -9.01609 452.895 -17.2173 477.493 -23.4697C501.081 -29.3973 525.036 -33.3761 546.697 -41.9021C574.048 -52.7018 597.453 -71.053 612.597 -94.1138" stroke="white" stroke-miterlimit="10"/>
<path d="M-326.244 -180.429C-279.802 -203.165 -225.651 -223.628 -174.712 -210.067C-139.008 -200.486 -110.005 -173.852 -99.5417 -142.265C-91.2812 -117.58 -93.3922 -91.0278 -83.9386 -67.4798C-72.0069 -37.9229 -41.6269 -15.4305 -5.83177 -8.20365C34.5525 0.0787653 77.5985 -11.6953 116.606 -0.895633C145.885 7.22438 169.381 27.1996 187.279 49.5296C206.736 73.8085 218.026 100.605 237.575 123.99C253.913 143.478 274.931 160.124 300.263 162.966C325.319 165.727 351.661 152.654 366.805 133.653C381.123 115.627 389.2 93.8649 393.697 71.6973C397.644 51.8033 401.591 31.016 414.716 15.3444C429.401 -2.11362 453.723 -11.2892 477.954 -17.3792C501.725 -23.2257 526.231 -26.4737 548.718 -34.5937C577.262 -44.9061 601.952 -63.2573 618.289 -86.5618" stroke="#F2F2F2" stroke-miterlimit="10"/>
<path d="M-326.062 -178.563C-278.151 -201.299 -223.265 -222.736 -171.133 -209.175C-135.062 -199.837 -105.417 -173.041 -95.4124 -140.967C-87.7027 -116.12 -91.1904 -89.3237 -82.8382 -64.6388C-72.375 -33.7016 -42.1786 -8.61073 -6.65878 -1.22151C34.1844 7.30451 78.24 -6.2559 118.532 3.97532C148.912 11.7705 173.235 32.233 191.958 54.8066C210.682 77.3802 225.092 102.552 243.816 125.126C258.96 143.477 278.876 161.016 304.3 164.427C329.173 167.756 354.505 156.226 370.567 139.092C386.629 121.959 394.706 100.035 399.295 78.1922C403.242 59.3538 405.261 39.3786 417.101 23.2198C430.593 4.70615 454.823 -5.44389 478.779 -11.2091C502.734 -17.0555 527.882 -19.4103 551.195 -27.1243C580.933 -36.9495 606.999 -55.382 624.437 -78.93" stroke="white" stroke-miterlimit="10"/>
</g>
</svg>
