<svg width="103" height="28" viewBox="0 0 103 28" fill="none" xmlns="http://www.w3.org/2000/svg">
<path d="M38.5215 6.89941H32.8238C32.6352 6.89929 32.4528 6.96802 32.3093 7.09322C32.1659 7.21841 32.0709 7.39184 32.0415 7.58226L29.7371 22.5137C29.7265 22.583 29.7308 22.6538 29.7495 22.7212C29.7683 22.7887 29.8011 22.8512 29.8458 22.9044C29.8904 22.9577 29.9458 23.0004 30.0082 23.0297C30.0706 23.0589 30.1384 23.074 30.207 23.0739H32.9271C33.1159 23.074 33.2985 23.0052 33.4419 22.8798C33.5854 22.7544 33.6802 22.5808 33.7095 22.3902L34.331 18.363C34.3601 18.1726 34.4549 17.9991 34.5982 17.8737C34.7415 17.7484 34.9238 17.6794 35.1124 17.6793H36.9161C40.6693 17.6793 42.8354 15.8232 43.4011 12.145C43.6561 10.5358 43.4119 9.27148 42.6746 8.386C41.8648 7.41367 40.4286 6.89941 38.5215 6.89941ZM39.1789 12.3528C38.8673 14.4422 37.3052 14.4422 35.7947 14.4422H34.935L35.5381 10.5401C35.5558 10.4259 35.6127 10.322 35.6987 10.2469C35.7847 10.1718 35.8941 10.1306 36.0072 10.1306H36.4013C37.4302 10.1306 38.4007 10.1306 38.9023 10.73C39.2014 11.0876 39.293 11.6189 39.1789 12.3528ZM55.553 12.2855H52.8245C52.7114 12.2855 52.6021 12.3268 52.5161 12.4019C52.4301 12.4769 52.3731 12.5809 52.3555 12.6951L52.2347 13.475L52.0439 13.1923C51.4532 12.3162 50.1361 12.0233 48.8214 12.0233C45.8063 12.0233 43.2312 14.357 42.7296 17.6308C42.4689 19.2638 42.8396 20.8253 43.746 21.9143C44.5775 22.9156 45.7672 23.3328 47.1826 23.3328C49.612 23.3328 50.9592 21.7363 50.9592 21.7363L50.8375 22.5111C50.8267 22.5804 50.8307 22.6513 50.8492 22.7188C50.8678 22.7863 50.9004 22.849 50.9449 22.9024C50.9894 22.9558 51.0447 22.9987 51.107 23.0282C51.1693 23.0577 51.2371 23.073 51.3057 23.0731H53.7634C53.9522 23.0732 54.1348 23.0043 54.2782 22.8789C54.4217 22.7536 54.5165 22.5799 54.5457 22.3894L56.0204 12.8458C56.0312 12.7766 56.0273 12.7059 56.0088 12.6385C55.9903 12.5711 55.9577 12.5086 55.9132 12.4554C55.8688 12.4021 55.8136 12.3593 55.7514 12.33C55.6892 12.3007 55.6215 12.2855 55.553 12.2855ZM51.7498 17.7125C51.4865 19.3055 50.2494 20.3749 48.6714 20.3749C47.8791 20.3749 47.246 20.1152 46.8394 19.6231C46.4362 19.1344 46.2829 18.4388 46.4112 17.664C46.6569 16.0846 47.915 14.9803 49.4687 14.9803C50.2435 14.9803 50.8734 15.2434 51.2883 15.7398C51.704 16.2412 51.8689 16.9411 51.7498 17.7125ZM70.0842 12.2855H67.3425C67.2131 12.2857 67.0858 12.3182 66.9716 12.3801C66.8573 12.4419 66.7596 12.5313 66.6868 12.6406L62.9053 18.3332L61.3023 12.8628C61.2531 12.6959 61.1527 12.5497 61.0158 12.4458C60.879 12.3418 60.713 12.2856 60.5425 12.2855H57.8482C57.7726 12.2853 57.698 12.3036 57.6307 12.3388C57.5634 12.374 57.5052 12.4251 57.4611 12.4879C57.417 12.5507 57.3883 12.6234 57.3772 12.6998C57.3661 12.7763 57.3731 12.8543 57.3975 12.9275L60.4176 21.985L57.5783 26.0812C57.5278 26.1538 57.4979 26.2392 57.4918 26.328C57.4857 26.4169 57.5036 26.5058 57.5436 26.5849C57.5836 26.664 57.6442 26.7304 57.7186 26.7767C57.7931 26.823 57.8785 26.8475 57.9657 26.8474H60.7042C60.832 26.8476 60.958 26.8161 61.0713 26.7556C61.1847 26.6951 61.2819 26.6074 61.3548 26.5001L70.4741 13.0475C70.5236 12.9748 70.5526 12.8895 70.558 12.8011C70.5634 12.7127 70.545 12.6245 70.5048 12.546C70.4647 12.4674 70.4042 12.4017 70.3301 12.3558C70.256 12.3099 70.1709 12.2856 70.0842 12.2855Z" fill="#253B80"/>
<path d="M79.1623 6.89929H73.4638C73.2753 6.89937 73.093 6.96819 72.9498 7.09337C72.8065 7.21854 72.7117 7.39186 72.6823 7.58213L70.3779 22.5136C70.3672 22.5827 70.3713 22.6534 70.3899 22.7208C70.4085 22.7882 70.4412 22.8507 70.4857 22.904C70.5302 22.9572 70.5854 23 70.6477 23.0293C70.7099 23.0586 70.7776 23.0738 70.8461 23.0738H73.7704C73.9023 23.0736 74.0298 23.0253 74.13 22.9376C74.2302 22.8499 74.2965 22.7285 74.3169 22.5953L74.9709 18.3629C75.0001 18.1724 75.0948 17.9989 75.2381 17.8736C75.3814 17.7482 75.5638 17.6793 75.7524 17.6792H77.5552C81.3093 17.6792 83.4745 15.8231 84.0411 12.1449C84.2968 10.5357 84.0511 9.27136 83.3137 8.38588C82.5048 7.41355 81.0693 6.89929 79.1623 6.89929ZM79.8196 12.3527C79.5089 14.4421 77.9468 14.4421 76.4355 14.4421H75.5766L76.1806 10.54C76.1979 10.4258 76.2546 10.3218 76.3405 10.2466C76.4264 10.1715 76.5357 10.1303 76.6488 10.1304H77.0429C78.0709 10.1304 79.0423 10.1304 79.5439 10.7298C79.843 11.0874 79.9338 11.6187 79.8196 12.3527ZM96.1929 12.2854H93.4661C93.353 12.2851 93.2436 12.3262 93.1577 12.4014C93.0718 12.4765 93.0151 12.5807 92.9979 12.6949L92.8771 13.4748L92.6855 13.1922C92.0948 12.3161 90.7785 12.0232 89.4638 12.0232C86.4488 12.0232 83.8744 14.3569 83.3729 17.6306C83.113 19.2637 83.482 20.8252 84.3885 21.9142C85.2216 22.9154 86.4096 23.3326 87.8251 23.3326C90.2545 23.3326 91.6016 21.7362 91.6016 21.7362L91.48 22.511C91.4691 22.5804 91.4731 22.6514 91.4918 22.7191C91.5104 22.7868 91.5432 22.8495 91.5879 22.9029C91.6326 22.9564 91.6881 22.9992 91.7506 23.0286C91.8131 23.058 91.8811 23.0731 91.9499 23.0729H94.4067C94.5953 23.0728 94.7777 23.0039 94.921 22.8785C95.0642 22.7532 95.159 22.5797 95.1882 22.3893L96.6636 12.8456C96.6741 12.7763 96.6698 12.7055 96.6509 12.638C96.632 12.5706 96.5991 12.5081 96.5544 12.4548C96.5097 12.4016 96.4542 12.3589 96.3918 12.3297C96.3294 12.3004 96.2616 12.2853 96.1929 12.2854ZM92.3897 17.7124C92.1281 19.3054 90.8893 20.3748 89.3114 20.3748C88.5207 20.3748 87.8859 20.1151 87.4793 19.623C87.0761 19.1343 86.9245 18.4386 87.0511 17.6638C87.2985 16.0845 88.5549 14.9802 90.1087 14.9802C90.8835 14.9802 91.5133 15.2432 91.9282 15.7396C92.3456 16.2411 92.5105 16.941 92.3897 17.7124ZM99.4096 7.30882L97.071 22.5136C97.0603 22.5827 97.0644 22.6534 97.083 22.7208C97.1016 22.7882 97.1343 22.8507 97.1788 22.904C97.2233 22.9572 97.2786 23 97.3408 23.0293C97.403 23.0586 97.4707 23.0738 97.5393 23.0738H99.8903C100.281 23.0738 100.613 22.7843 100.673 22.3901L102.979 7.45953C102.989 7.39032 102.985 7.31956 102.967 7.25212C102.948 7.18468 102.915 7.12215 102.871 7.06884C102.826 7.01552 102.771 6.97269 102.709 6.94327C102.647 6.91386 102.579 6.89856 102.51 6.89844H99.8778C99.7648 6.89885 99.6556 6.94037 99.5698 7.01557C99.484 7.09077 99.4272 7.19473 99.4096 7.30882Z" fill="#179BD7"/>
<path d="M6.07575 25.975L6.51147 23.1466L5.54089 23.1236H0.90625L4.12709 2.2526C4.13668 2.18883 4.16837 2.1307 4.21639 2.08882C4.26441 2.04693 4.32556 2.02408 4.38869 2.02442H12.2033C14.7977 2.02442 16.588 2.57614 17.5228 3.66511C17.961 4.17597 18.2401 4.70981 18.3751 5.29729C18.5167 5.91372 18.5192 6.65021 18.3809 7.54846L18.3709 7.61402V8.18958L18.8091 8.44331C19.1437 8.61652 19.4444 8.85083 19.6964 9.13466C20.0713 9.57144 20.3138 10.1266 20.4162 10.7847C20.522 11.4616 20.487 12.2671 20.3138 13.1789C20.1138 14.2279 19.7906 15.1415 19.354 15.889C18.9688 16.5587 18.4509 17.1387 17.8336 17.5919C17.2537 18.0125 16.5647 18.3317 15.7858 18.5361C15.0309 18.737 14.1703 18.8383 13.2264 18.8383H12.6182C12.1833 18.8383 11.761 18.9984 11.4294 19.2853C11.0983 19.5753 10.8786 19.976 10.8095 20.416L10.7637 20.6706L9.99391 25.6557L9.95892 25.8388C9.94975 25.8967 9.93393 25.9256 9.9106 25.9452C9.888 25.9641 9.85981 25.9746 9.83062 25.975H6.07575Z" fill="#253B80"/>
<path d="M19.2238 7.68066C19.2005 7.83307 19.1738 7.98888 19.1438 8.14895C18.1133 13.5563 14.5875 15.4244 10.0845 15.4244H7.79177C7.24108 15.4244 6.77703 15.8331 6.69122 16.3882L5.51735 23.9965L5.18494 26.1532C5.1717 26.2387 5.17675 26.3262 5.19976 26.4095C5.22276 26.4929 5.26317 26.5702 5.3182 26.636C5.37323 26.7019 5.44157 26.7548 5.51852 26.7911C5.59548 26.8274 5.67921 26.8462 5.76396 26.8462H9.83041C10.312 26.8462 10.721 26.4886 10.7968 26.0033L10.8368 25.7922L11.6025 20.8267L11.6516 20.5542C11.7266 20.0672 12.1365 19.7096 12.618 19.7096H13.2262C17.166 19.7096 20.2502 18.0749 21.1517 13.3443C21.5282 11.3682 21.3333 9.71812 20.3369 8.55763C20.0211 8.19864 19.6439 7.90146 19.2238 7.68066Z" fill="#179BD7"/>
<path d="M18.146 7.24162C17.8169 7.14433 17.4821 7.06841 17.1437 7.01429C16.475 6.90926 15.7991 6.85886 15.1226 6.86358H8.99748C8.76438 6.8634 8.5389 6.94845 8.36181 7.10335C8.18472 7.25826 8.0677 7.4728 8.03189 7.7082L6.7289 16.1424L6.69141 16.3885C6.732 16.12 6.86528 15.8752 7.06714 15.6984C7.26901 15.5216 7.52612 15.4245 7.79196 15.4247H10.0847C14.5877 15.4247 18.1135 13.5558 19.144 8.14924C19.1749 7.98917 19.2007 7.83336 19.224 7.68095C18.9521 7.53521 18.6686 7.41303 18.3767 7.31569C18.3002 7.28974 18.2233 7.26505 18.146 7.24162Z" fill="#222D65"/>
<path d="M8.03199 7.70746C8.06748 7.472 8.18445 7.25735 8.36163 7.10253C8.53881 6.9477 8.76445 6.86296 8.99757 6.8637H15.1227C15.8483 6.8637 16.5256 6.91223 17.1438 7.0144C17.5621 7.08159 17.9747 7.18208 18.3777 7.31495C18.6817 7.41798 18.9642 7.53973 19.2249 7.68021C19.5315 5.68192 19.2224 4.32135 18.1652 3.08933C16.9997 1.73302 14.8961 1.15234 12.2042 1.15234H4.38959C3.83974 1.15234 3.37069 1.56103 3.28571 2.11701L0.0307169 23.2025C0.0155557 23.3004 0.021324 23.4005 0.0476251 23.4959C0.0739262 23.5913 0.120136 23.6798 0.183075 23.7552C0.246015 23.8306 0.324191 23.8912 0.412225 23.9327C0.500259 23.9743 0.596063 23.9959 0.693046 23.9961H5.51764L6.72899 16.1417L8.03199 7.70746Z" fill="#253B80"/>
</svg>
