<svg width="24" height="24" viewBox="0 0 24 24" fill="none" xmlns="http://www.w3.org/2000/svg">
<path d="M19.0001 18.2504C19.1901 18.2504 19.3801 18.1804 19.5301 18.0304C19.8201 17.7404 19.8201 17.2604 19.5301 16.9704L5.53006 2.97043C5.24006 2.68043 4.76006 2.68043 4.47006 2.97043C4.18006 3.26043 4.18006 3.74043 4.47006 4.03043L18.4701 18.0304C18.6201 18.1804 18.8101 18.2504 19.0001 18.2504Z" fill="#05C46B"/>
<path d="M8.73 18.2505H19C19.41 18.2505 19.75 17.9105 19.75 17.5005V7.23047C19.75 6.82047 19.41 6.48047 19 6.48047C18.59 6.48047 18.25 6.82047 18.25 7.23047V16.7505H8.73C8.32 16.7505 7.98 17.0905 7.98 17.5005C7.98 17.9105 8.32 18.2505 8.73 18.2505Z" fill="#05C46B"/>
<path d="M3.5 22.75H20.5C20.91 22.75 21.25 22.41 21.25 22C21.25 21.59 20.91 21.25 20.5 21.25H3.5C3.09 21.25 2.75 21.59 2.75 22C2.75 22.41 3.09 22.75 3.5 22.75Z" fill="#05C46B"/>
</svg>
