<svg width="25" height="25" viewBox="0 0 25 25" fill="none" xmlns="http://www.w3.org/2000/svg">
<path d="M18.75 19.6458H17.9583C17.125 19.6458 16.3333 19.9687 15.75 20.5521L13.9687 22.3125C13.1562 23.1146 11.8334 23.1146 11.0209 22.3125L9.23958 20.5521C8.65624 19.9687 7.85417 19.6458 7.03125 19.6458H6.25C4.52083 19.6458 3.125 18.2604 3.125 16.5521V5.18747C3.125 3.47914 4.52083 2.09375 6.25 2.09375H18.75C20.4792 2.09375 21.875 3.47914 21.875 5.18747V16.5521C21.875 18.25 20.4792 19.6458 18.75 19.6458Z" stroke="#88888C" stroke-width="1.5" stroke-miterlimit="10" stroke-linecap="round" stroke-linejoin="round"/>
<path d="M12.5001 10.4166C13.8405 10.4166 14.9272 9.32998 14.9272 7.98954C14.9272 6.6491 13.8405 5.5625 12.5001 5.5625C11.1597 5.5625 10.073 6.6491 10.073 7.98954C10.073 9.32998 11.1597 10.4166 12.5001 10.4166Z" stroke="#88888C" stroke-width="1.5" stroke-linecap="round" stroke-linejoin="round"/>
<path d="M16.6667 16.3118C16.6667 14.4368 14.8021 12.916 12.5 12.916C10.198 12.916 8.33337 14.4368 8.33337 16.3118" stroke="#88888C" stroke-width="1.5" stroke-linecap="round" stroke-linejoin="round"/>
</svg>
