<svg width="25" height="25" viewBox="0 0 25 25" fill="none" xmlns="http://www.w3.org/2000/svg">
<path d="M9.37496 19.7917C9.37496 20.5729 9.15621 21.3125 8.77079 21.9375C8.05204 23.1458 6.72913 23.9583 5.20829 23.9583C3.68746 23.9583 2.36454 23.1458 1.64579 21.9375C1.26038 21.3125 1.04163 20.5729 1.04163 19.7917C1.04163 17.4896 2.90621 15.625 5.20829 15.625C7.51038 15.625 9.37496 17.4896 9.37496 19.7917Z" stroke="#88888C" stroke-width="1.5" stroke-miterlimit="10" stroke-linecap="round" stroke-linejoin="round"/>
<path d="M3.58472 19.7903L4.61597 20.8216L6.83472 18.7695" stroke="#88888C" stroke-width="1.5" stroke-linecap="round" stroke-linejoin="round"/>
<path d="M18.491 7.34437C18.241 7.3027 17.9806 7.2923 17.7098 7.2923H7.29309C7.00143 7.2923 6.72017 7.31313 6.44934 7.35479C6.59517 7.06313 6.80351 6.79233 7.05351 6.54233L10.4389 3.14648C11.866 1.72982 14.1785 1.72982 15.6056 3.14648L17.4285 4.99019C18.0952 5.64644 18.4493 6.47978 18.491 7.34437Z" stroke="#88888C" stroke-width="1.5" stroke-linecap="round" stroke-linejoin="round"/>
<path d="M22.9167 12.4993V17.7077C22.9167 20.8327 20.8334 22.916 17.7084 22.916H7.94796C8.27087 22.6452 8.55212 22.3118 8.77087 21.9368C9.15629 21.3118 9.37504 20.5723 9.37504 19.791C9.37504 17.4889 7.51046 15.6243 5.20837 15.6243C3.95837 15.6243 2.84379 16.1764 2.08337 17.041V12.4993C2.08337 9.66602 3.79171 7.68685 6.44796 7.35351C6.71879 7.31185 7.00004 7.29102 7.29171 7.29102H17.7084C17.9792 7.29102 18.2396 7.30142 18.4896 7.34309C21.1771 7.65559 22.9167 9.64518 22.9167 12.4993Z" stroke="#88888C" stroke-width="1.5" stroke-linecap="round" stroke-linejoin="round"/>
<path d="M22.9167 13.0215H19.7917C18.6459 13.0215 17.7084 13.959 17.7084 15.1048C17.7084 16.2507 18.6459 17.1882 19.7917 17.1882H22.9167" stroke="#88888C" stroke-width="1.5" stroke-linecap="round" stroke-linejoin="round"/>
</svg>
