<svg width="16" height="16" viewBox="0 0 16 16" fill="none" xmlns="http://www.w3.org/2000/svg">
<path d="M6.96714 4.97998C6.84048 4.97998 6.71379 4.93333 6.61379 4.83333L4.48712 2.70667L2.36045 4.83333C2.16712 5.02667 1.84712 5.02667 1.65379 4.83333C1.46046 4.64 1.46046 4.32 1.65379 4.12667L4.13381 1.64665C4.22714 1.55331 4.35379 1.5 4.48712 1.5C4.62046 1.5 4.74714 1.55331 4.84048 1.64665L7.32046 4.12667C7.51379 4.32 7.51379 4.64 7.32046 4.83333C7.22046 4.93333 7.09381 4.97998 6.96714 4.97998Z" fill="#25272C"/>
<path d="M4.48633 14.5C4.21299 14.5 3.98633 14.2733 3.98633 14V2C3.98633 1.72667 4.21299 1.5 4.48633 1.5C4.75966 1.5 4.98633 1.72667 4.98633 2V14C4.98633 14.2733 4.75966 14.5 4.48633 14.5Z" fill="#25272C"/>
<path d="M11.5203 14.5C11.387 14.5 11.2603 14.4467 11.167 14.3534L8.68699 11.8733C8.49366 11.68 8.49366 11.36 8.68699 11.1667C8.88033 10.9733 9.20032 10.9733 9.39366 11.1667L11.5203 13.2933L13.647 11.1667C13.8403 10.9733 14.1603 10.9733 14.3537 11.1667C14.547 11.36 14.547 11.68 14.3537 11.8733L11.8736 14.3534C11.7803 14.4467 11.647 14.5 11.5203 14.5Z" fill="#25272C"/>
<path d="M11.5137 14.5C11.2403 14.5 11.0137 14.2733 11.0137 14V2C11.0137 1.72667 11.2403 1.5 11.5137 1.5C11.787 1.5 12.0137 1.72667 12.0137 2V14C12.0137 14.2733 11.7937 14.5 11.5137 14.5Z" fill="#25272C"/>
</svg>
