<svg width="16" height="16" viewBox="0 0 16 16" fill="none" xmlns="http://www.w3.org/2000/svg">
<mask id="path-1-inside-1_2857_817" fill="white">
<path d="M5.33301 3.83331C5.05967 3.83331 4.83301 3.60665 4.83301 3.33331V1.33331C4.83301 1.05998 5.05967 0.833313 5.33301 0.833313C5.60634 0.833313 5.83301 1.05998 5.83301 1.33331V3.33331C5.83301 3.60665 5.60634 3.83331 5.33301 3.83331Z"/>
</mask>
<path d="M5.33301 3.83331C5.05967 3.83331 4.83301 3.60665 4.83301 3.33331V1.33331C4.83301 1.05998 5.05967 0.833313 5.33301 0.833313C5.60634 0.833313 5.83301 1.05998 5.83301 1.33331V3.33331C5.83301 3.60665 5.60634 3.83331 5.33301 3.83331Z" fill="#292D32"/>
<path d="M5.33301 2.83331C5.61196 2.83331 5.83301 3.05436 5.83301 3.33331H3.83301C3.83301 4.15893 4.50739 4.83331 5.33301 4.83331V2.83331ZM5.83301 3.33331V1.33331H3.83301V3.33331H5.83301ZM5.83301 1.33331C5.83301 1.61226 5.61196 1.83331 5.33301 1.83331V-0.166687C4.50739 -0.166687 3.83301 0.507695 3.83301 1.33331H5.83301ZM5.33301 1.83331C5.05406 1.83331 4.83301 1.61226 4.83301 1.33331H6.83301C6.83301 0.507695 6.15863 -0.166687 5.33301 -0.166687V1.83331ZM4.83301 1.33331V3.33331H6.83301V1.33331H4.83301ZM4.83301 3.33331C4.83301 3.05436 5.05406 2.83331 5.33301 2.83331V4.83331C6.15863 4.83331 6.83301 4.15893 6.83301 3.33331H4.83301Z" fill="#25272C" mask="url(#path-1-inside-1_2857_817)"/>
<path d="M10.667 3.83331C10.3937 3.83331 10.167 3.60665 10.167 3.33331V1.33331C10.167 1.05998 10.3937 0.833313 10.667 0.833313C10.9403 0.833313 11.167 1.05998 11.167 1.33331V3.33331C11.167 3.60665 10.9403 3.83331 10.667 3.83331Z" fill="#292D32"/>
<path d="M10 15.1666H6C2.25333 15.1666 1.5 13.4 1.5 10.5466V6.43331C1.5 3.27331 2.56667 1.98665 5.30667 1.83331H10.6667C10.6733 1.83331 10.6867 1.83331 10.6933 1.83331C13.4333 1.98665 14.5 3.27331 14.5 6.43331V10.5466C14.5 13.4 13.7467 15.1666 10 15.1666ZM5.33333 2.83331C3.46667 2.93998 2.5 3.52665 2.5 6.43331V10.5466C2.5 13.1 2.98667 14.1666 6 14.1666H10C13.0133 14.1666 13.5 13.1 13.5 10.5466V6.43331C13.5 3.53331 12.54 2.93998 10.6533 2.83331H5.33333Z" fill="#292D32"/>
<path d="M13.8337 12.2333H2.16699C1.89366 12.2333 1.66699 12.0067 1.66699 11.7333C1.66699 11.46 1.89366 11.2333 2.16699 11.2333H13.8337C14.107 11.2333 14.3337 11.46 14.3337 11.7333C14.3337 12.0067 14.107 12.2333 13.8337 12.2333Z" fill="#292D32"/>
<path d="M7.99967 5.5C7.17967 5.5 6.48634 5.94667 6.48634 6.81333C6.48634 7.22667 6.67967 7.54 6.97301 7.74C6.56634 7.98 6.33301 8.36667 6.33301 8.82C6.33301 9.64667 6.96634 10.16 7.99967 10.16C9.02634 10.16 9.66634 9.64667 9.66634 8.82C9.66634 8.36667 9.43301 7.97333 9.01967 7.74C9.31967 7.53333 9.50634 7.22667 9.50634 6.81333C9.50634 5.94667 8.81967 5.5 7.99967 5.5ZM7.99967 7.39333C7.65301 7.39333 7.39967 7.18667 7.39967 6.86C7.39967 6.52667 7.65301 6.33333 7.99967 6.33333C8.34634 6.33333 8.59967 6.52667 8.59967 6.86C8.59967 7.18667 8.34634 7.39333 7.99967 7.39333ZM7.99967 9.33333C7.55967 9.33333 7.23967 9.11333 7.23967 8.71333C7.23967 8.31333 7.55967 8.1 7.99967 8.1C8.43967 8.1 8.75967 8.32 8.75967 8.71333C8.75967 9.11333 8.43967 9.33333 7.99967 9.33333Z" fill="#292D32"/>
</svg>
